<svg width="141" height="40" viewBox="0 0 141 40" fill="none" xmlns="http://www.w3.org/2000/svg">
<rect x="0.788574" y="2.50293" width="44" height="5" fill="white"/>
<rect x="1" y="33.3967" width="44" height="5" fill="white"/>
<rect x="1" y="17.9498" width="44" height="5" fill="white"/>
<rect x="23.2529" y="25.6732" width="21.7471" height="5" fill="white"/>
<rect x="1" y="10.2263" width="22.2529" height="5" fill="white"/>
<path d="M56.56 37.4C54.72 37.4 53.2 36.9333 52 36C50.8267 35.0667 50.24 33.76 50.24 32.08C50.24 28.96 52.4533 27.0933 56.88 26.48L63.84 25.44V24.36C63.84 22.92 63.4933 21.92 62.8 21.36C62.1067 20.8 60.96 20.52 59.36 20.52C57.7867 20.52 56.6533 20.8 55.96 21.36C55.2933 21.92 54.96 22.8533 54.96 24.16V24.76H50.8V24.36C50.8 22.12 51.6 20.2933 53.2 18.88C54.8267 17.44 56.96 16.72 59.6 16.72C62.2933 16.72 64.36 17.4667 65.8 18.96C67.24 20.4267 67.96 22.4133 67.96 24.92V37H63.96V33.88H63.76C62.32 36.2267 59.92 37.4 56.56 37.4ZM54.44 31.76C54.44 32.5333 54.7067 33.0933 55.24 33.44C55.8 33.7867 56.7067 33.96 57.96 33.96C59.6133 33.96 61 33.5733 62.12 32.8C63.2667 32 63.84 30.68 63.84 28.84V28.48L57.52 29.44C56.3733 29.6 55.5733 29.8533 55.12 30.2C54.6667 30.52 54.44 31.04 54.44 31.76ZM76.0566 37H72.0966V10.2H76.4166V20.28H76.4966C76.9766 19.2933 77.7899 18.4533 78.9366 17.76C80.1099 17.0667 81.5232 16.72 83.1766 16.72C85.8699 16.72 87.9366 17.64 89.3766 19.48C90.8166 21.32 91.5366 23.84 91.5366 27.04C91.5366 30.24 90.7899 32.7733 89.2966 34.64C87.8032 36.48 85.6832 37.4 82.9366 37.4C79.4699 37.4 77.2299 36.1733 76.2166 33.72H76.0566V37ZM76.4166 28.84C76.4166 32.0933 78.2166 33.72 81.8166 33.72C83.7632 33.72 85.1499 33.2133 85.9766 32.2C86.8299 31.1867 87.2566 29.4667 87.2566 27.04C87.2566 24.64 86.8299 22.9333 85.9766 21.92C85.1232 20.9067 83.7366 20.4 81.8166 20.4C78.2166 20.4 76.4166 22.0267 76.4166 25.28V28.84ZM99.1119 37H94.7919V17H98.7519V20.16H98.9519C99.3785 19.1467 100.059 18.32 100.992 17.68C101.952 17.04 103.125 16.72 104.512 16.72C106.485 16.72 107.939 17.3467 108.872 18.6C109.805 19.8533 110.272 21.48 110.272 23.48V24.8H105.952V24C105.952 22.6667 105.712 21.7333 105.232 21.2C104.779 20.6667 103.925 20.4 102.672 20.4C101.365 20.4 100.445 20.68 99.9119 21.24C99.3785 21.7733 99.1119 22.7067 99.1119 24.04V37ZM121.874 37.4C118.701 37.4 116.301 36.48 114.674 34.64C113.047 32.7733 112.234 30.24 112.234 27.04C112.234 23.9467 113.101 21.4533 114.834 19.56C116.567 17.6667 118.901 16.72 121.834 16.72C124.554 16.72 126.754 17.4933 128.434 19.04C130.114 20.5867 130.954 22.6933 130.954 25.36C130.954 26.3733 130.874 27.28 130.714 28.08H116.274C116.354 29.9733 116.807 31.36 117.634 32.24C118.487 33.12 119.914 33.56 121.914 33.56C124.981 33.56 126.514 32.5867 126.514 30.64V30.32H130.794V30.68C130.794 32.7067 129.981 34.3333 128.354 35.56C126.727 36.7867 124.567 37.4 121.874 37.4ZM121.754 20.36C119.941 20.36 118.607 20.7733 117.754 21.6C116.927 22.4 116.447 23.6 116.314 25.2H126.834C126.914 23.5467 126.514 22.3333 125.634 21.56C124.781 20.76 123.487 20.36 121.754 20.36Z" fill="white"/>
</svg>
