<svg width="912" height="255" viewBox="0 0 912 255" fill="none" xmlns="http://www.w3.org/2000/svg">
<rect x="138.477" y="54.9026" width="204" height="20.7143" fill="black"/>
<rect x="138.477" y="179.188" width="204" height="20.7143" fill="black"/>
<rect x="138.477" y="117.045" width="204" height="20.7143" fill="black"/>
<rect x="241.65" y="148.117" width="100.828" height="20.7143" fill="black"/>
<rect x="138.477" y="85.9739" width="103.172" height="20.7143" fill="black"/>
<path d="M357.211 171.551C357.211 151.57 374.971 143.093 399.392 143.093H437.739V142.084C437.739 128.562 426.437 119.681 408.474 119.681C390.512 119.681 382.439 124.929 380.622 134.213H362.256C363.871 116.654 379.411 104.544 408.272 104.544C436.326 104.544 456.105 119.883 456.105 142.69V199.403H437.739C437.739 193.751 438.345 190.724 441.574 183.458L436.528 182.247C428.657 194.761 415.135 201.421 397.778 201.421C376.586 201.421 357.211 191.33 357.211 171.551ZM404.236 157.019C387.081 157.019 375.577 160.248 375.577 171.551C375.577 181.642 387.484 185.678 400.603 185.678C425.226 185.678 437.739 175.991 437.739 167.514V157.019H404.236ZM477.462 43.9968H495.829V103.737C495.829 111.81 495.223 114.838 491.994 122.103L497.04 123.516C504.911 111.205 518.433 104.544 535.992 104.544C559.404 104.544 579.586 119.681 579.586 152.983C579.586 186.284 559.404 201.421 535.992 201.421C518.433 201.421 504.911 194.761 497.04 182.449L491.994 183.862C495.223 190.724 495.829 193.751 495.829 199.403H477.462V43.9968ZM495.829 135.222V170.542C500.067 177.404 511.975 185.88 528.524 185.88C547.9 185.88 561.22 175.991 561.22 152.983C561.22 129.975 547.9 119.883 528.524 119.883C511.975 119.883 500.067 128.562 495.829 135.222ZM596.09 106.563H604.567C610.824 106.563 613.044 110.599 613.044 115.645C613.044 118.067 612.64 119.883 611.631 122.709L616.676 124.122C620.915 109.388 623.74 106.563 642.712 106.563H653.812V122.305H642.712C624.346 122.305 622.529 125.333 622.529 134.617V199.403H604.163V130.378C604.163 123.314 602.549 122.305 596.09 122.305V106.563ZM661.132 152.983C661.132 123.112 680.305 104.544 712.194 104.544C743.88 104.544 763.256 123.112 763.256 152.983V159.239H679.902C681.92 176.798 693.424 186.082 712.194 186.082C732.982 186.082 742.468 179.22 743.88 170.743H761.843C758.614 188.1 743.678 201.421 712.194 201.421C680.305 201.421 661.132 182.853 661.132 152.983ZM712.194 119.883C693.828 119.883 682.323 128.965 680.103 146.121H744.284C742.064 128.965 730.56 119.883 712.194 119.883Z" fill="black"/>
</svg>
