<svg width="238" height="65" viewBox="0 0 238 65" fill="none" xmlns="http://www.w3.org/2000/svg">
<rect x="1" y="0.5" width="85" height="9.14286" fill="#27374D"/>
<rect x="1" y="55.3572" width="85" height="9.14286" fill="#27374D"/>
<rect x="1" y="27.9287" width="85" height="9.14286" fill="#27374D"/>
<rect x="43.9883" y="41.6428" width="42.0115" height="9.14286" fill="#27374D"/>
<rect x="1" y="14.2141" width="42.9885" height="9.14286" fill="#27374D"/>
<path d="M95.072 44.168C95.072 37.832 100.704 35.144 108.448 35.144H120.608V34.824C120.608 30.536 117.024 27.72 111.328 27.72C105.632 27.72 103.072 29.384 102.496 32.328H96.672C97.184 26.76 102.112 22.92 111.264 22.92C120.16 22.92 126.432 27.784 126.432 35.016V53H120.608C120.608 51.208 120.8 50.248 121.824 47.944L120.224 47.56C117.728 51.528 113.44 53.64 107.936 53.64C101.216 53.64 95.072 50.44 95.072 44.168ZM109.984 39.56C104.544 39.56 100.896 40.584 100.896 44.168C100.896 47.368 104.672 48.648 108.832 48.648C116.64 48.648 120.608 45.576 120.608 42.888V39.56H109.984ZM133.205 3.72H139.029V22.664C139.029 25.224 138.837 26.184 137.812 28.488L139.413 28.936C141.909 25.032 146.197 22.92 151.765 22.92C159.189 22.92 165.589 27.72 165.589 38.28C165.589 48.84 159.189 53.64 151.765 53.64C146.197 53.64 141.909 51.528 139.413 47.624L137.812 48.072C138.837 50.248 139.029 51.208 139.029 53H133.205V3.72ZM139.029 32.648V43.848C140.373 46.024 144.149 48.712 149.397 48.712C155.541 48.712 159.765 45.576 159.765 38.28C159.765 30.984 155.541 27.784 149.397 27.784C144.149 27.784 140.373 30.536 139.029 32.648ZM170.822 23.56H173.51C175.494 23.56 176.198 24.84 176.198 26.44C176.198 27.208 176.07 27.784 175.75 28.68L177.35 29.128C178.694 24.456 179.59 23.56 185.606 23.56H189.126V28.552H185.606C179.782 28.552 179.206 29.512 179.206 32.456V53H173.382V31.112C173.382 28.872 172.87 28.552 170.822 28.552V23.56ZM191.447 38.28C191.447 28.808 197.527 22.92 207.639 22.92C217.687 22.92 223.831 28.808 223.831 38.28V40.264H197.399C198.039 45.832 201.687 48.776 207.639 48.776C214.231 48.776 217.239 46.6 217.687 43.912H223.383C222.359 49.416 217.623 53.64 207.639 53.64C197.527 53.64 191.447 47.752 191.447 38.28ZM207.639 27.784C201.815 27.784 198.167 30.664 197.463 36.104H217.815C217.111 30.664 213.463 27.784 207.639 27.784Z" fill="#27374D"/>
</svg>
