<svg width="2329" height="1521" viewBox="0 0 2329 1521" fill="none" xmlns="http://www.w3.org/2000/svg">
<path opacity="0.0144928" d="M1772.65 1281.62L1969 1124.3C1973.59 1120.63 1975.87 1114.95 1975.28 1108.69L1943.66 773.548C1943.15 768.158 1940.55 762.738 1936.34 758.311L1696.97 506.646C1690.97 500.342 1682.45 496.805 1674.47 497.307L1415.46 513.59C1407.48 514.092 1401.18 518.56 1398.82 525.389L1304.88 798.007C1303.23 802.803 1303.67 808.359 1306.12 813.628L1458.32 1141.19C1461.17 1147.31 1466.46 1152.51 1472.9 1155.49L1748.3 1283.15C1757 1287.18 1766.45 1286.59 1772.65 1281.62Z" stroke="url(#paint0_linear_322_248)" stroke-width="4"/>
<path opacity="0.0289855" d="M1724.81 1278.77L1932.01 1132.19C1936.91 1128.73 1939.61 1123.11 1939.44 1116.76L1930.47 786.896C1930.32 781.352 1927.99 775.681 1923.93 770.994L1701.73 514.208C1696.14 507.746 1687.95 503.923 1680.04 504.086L1419.36 509.445C1411.46 509.607 1404.95 513.733 1402.12 520.368L1289.85 784.03C1287.8 788.842 1287.87 794.56 1290.06 800.062L1419.91 1127.44C1422.41 1133.74 1427.46 1139.2 1433.78 1142.44L1700.84 1279.27C1709.12 1283.51 1718.38 1283.32 1724.81 1278.77Z" stroke="url(#paint1_linear_322_248)" stroke-width="4"/>
<path opacity="0.0434783" d="M1677.18 1274.77L1894.46 1139.25C1899.65 1136.01 1902.78 1130.47 1903.05 1124.06L1916.27 800.319C1916.5 794.652 1914.48 788.752 1910.61 783.82L1705.84 522.706C1700.67 516.103 1692.81 512.013 1684.98 511.849L1423.45 506.355C1415.63 506.19 1408.91 509.974 1405.63 516.399L1275.69 770.482C1273.24 775.281 1272.92 781.132 1274.8 786.844L1382.44 1113.12C1384.57 1119.59 1389.33 1125.29 1395.5 1128.77L1653.6 1274.27C1661.49 1278.72 1670.54 1278.91 1677.18 1274.77Z" stroke="url(#paint2_linear_322_248)" stroke-width="4"/>
<path opacity="0.057971" d="M1629.86 1269.63L1856.42 1145.46C1861.89 1142.47 1865.44 1137.04 1866.15 1130.59L1901.05 813.768C1901.69 808.01 1900.01 801.912 1896.36 796.753L1709.25 532.094C1704.49 525.37 1696.97 521.03 1689.23 520.55L1427.64 504.311C1419.9 503.831 1412.99 507.275 1409.26 513.472L1262.37 757.397C1259.51 762.151 1258.78 768.1 1260.33 773.994L1345.94 1098.3C1347.68 1104.9 1352.13 1110.82 1358.13 1114.53L1606.66 1268.19C1614.16 1272.83 1623.03 1273.38 1629.86 1269.63Z" stroke="url(#paint3_linear_322_248)" stroke-width="4"/>
<path opacity="0.0724638" d="M1582.92 1263.4L1817.94 1150.83C1823.67 1148.09 1827.64 1142.8 1828.81 1136.35L1884.82 827.19C1885.88 821.379 1884.57 815.117 1881.17 809.755L1711.88 542.329C1707.56 535.499 1700.37 530.926 1692.72 530.139L1431.86 503.302C1424.21 502.515 1417.12 505.619 1412.96 511.576L1249.86 744.805C1246.59 749.481 1245.43 755.489 1246.63 761.532L1310.44 1083.02C1311.77 1089.73 1315.88 1095.84 1321.7 1099.78L1560.1 1261.06C1567.22 1265.87 1575.91 1266.76 1582.92 1263.4Z" stroke="url(#paint4_linear_322_248)" stroke-width="4"/>
<path opacity="0.0869565" d="M1536.46 1256.12L1779.08 1155.35C1785.05 1152.87 1789.43 1147.75 1791.06 1141.34L1867.59 840.537C1869.07 834.713 1868.15 828.328 1865.04 822.79L1713.68 553.361C1709.79 546.443 1702.94 541.649 1695.38 540.564L1436.05 503.312C1428.49 502.227 1421.22 504.993 1416.64 510.694L1238.11 732.735C1234.44 737.299 1232.84 743.323 1233.66 749.477L1275.99 1067.35C1276.89 1074.12 1280.64 1080.41 1286.24 1084.55L1513.99 1252.9C1520.74 1257.88 1529.27 1259.11 1536.46 1256.12Z" stroke="url(#paint5_linear_322_248)" stroke-width="4"/>
<path opacity="0.101449" d="M1490.53 1247.83L1739.9 1159.01C1746.09 1156.81 1750.87 1151.88 1752.96 1145.55L1849.36 853.762C1851.27 847.97 1850.77 841.505 1847.97 835.821L1714.59 565.143C1711.14 558.152 1704.62 553.15 1697.16 551.772L1440.13 504.328C1432.67 502.95 1425.22 505.375 1420.24 510.809L1227.08 721.213C1223.03 725.631 1220.98 731.626 1221.4 737.849L1242.59 1051.34C1243.05 1058.15 1246.41 1064.57 1251.8 1068.91L1468.41 1243.75C1474.8 1248.91 1483.18 1250.45 1490.53 1247.83Z" stroke="url(#paint6_linear_322_248)" stroke-width="4"/>
<path opacity="0.115942" d="M1445.22 1238.58L1700.46 1161.83C1706.85 1159.9 1712.01 1155.21 1714.56 1148.98L1830.14 866.82C1832.48 861.103 1832.41 854.606 1829.95 848.809L1714.56 577.622C1711.56 570.573 1705.37 565.372 1698 563.707L1444.04 506.326C1436.67 504.661 1429.06 506.744 1423.68 511.9L1216.74 710.258C1212.31 714.498 1209.82 720.416 1209.83 726.665L1210.27 1035.05C1210.28 1041.85 1213.25 1048.38 1218.39 1052.91L1423.42 1233.65C1429.46 1238.97 1437.7 1240.84 1445.22 1238.58Z" stroke="url(#paint7_linear_322_248)" stroke-width="4"/>
<path opacity="0.130435" d="M1400.6 1228.4L1660.81 1163.8C1667.38 1162.16 1672.9 1157.72 1675.89 1151.64L1809.96 879.672C1812.72 874.073 1813.09 867.593 1810.98 861.719L1713.54 590.745C1710.99 583.654 1705.13 578.262 1697.85 576.312L1447.71 509.287C1440.43 507.337 1432.66 509.076 1426.9 513.942L1207.03 699.892C1202.27 703.923 1199.34 709.718 1198.93 715.946L1179.06 1018.52C1178.61 1025.27 1181.17 1031.89 1186.05 1036.58L1379.09 1222.64C1384.79 1228.13 1392.91 1230.31 1400.6 1228.4Z" stroke="url(#paint8_linear_322_248)" stroke-width="4"/>
<path opacity="0.144928" d="M1356.72 1217.36L1621.01 1164.93C1627.74 1163.59 1633.6 1159.42 1637.02 1153.53L1788.84 892.277C1792 886.84 1792.8 880.426 1791.06 874.511L1711.48 604.46C1709.39 597.34 1703.85 591.764 1696.66 589.529L1451.07 513.186C1443.88 510.951 1435.95 512.342 1429.84 516.908L1197.92 690.129C1192.84 693.923 1189.5 699.549 1188.67 705.711L1148.95 1001.81C1148.05 1008.49 1150.19 1015.14 1154.79 1020L1335.5 1210.76C1340.86 1216.42 1348.87 1218.91 1356.72 1217.36Z" stroke="url(#paint9_linear_322_248)" stroke-width="4"/>
<path opacity="0.15942" d="M1313.66 1205.5L1581.12 1165.22C1587.98 1164.19 1594.15 1160.32 1597.99 1154.64L1766.8 904.603C1770.34 899.367 1771.56 893.065 1770.2 887.147L1708.35 618.709C1706.71 611.575 1701.5 605.82 1694.4 603.3L1454.06 517.995C1446.96 515.476 1438.88 516.513 1432.42 520.77L1189.35 680.983C1183.99 684.515 1180.27 689.929 1179.03 695.981L1119.96 984.971C1118.62 991.533 1120.33 998.204 1124.64 1003.21L1292.7 1198.06C1297.73 1203.9 1305.65 1206.71 1313.66 1205.5Z" stroke="url(#paint10_linear_322_248)" stroke-width="4"/>
<path opacity="0.173913" d="M1271.46 1192.88L1541.19 1164.7C1548.17 1163.97 1554.62 1160.42 1558.84 1154.98L1743.86 916.616C1747.74 911.616 1749.38 905.472 1748.4 899.586L1704.11 633.436C1702.92 626.302 1698.03 620.371 1691.03 617.565L1456.62 523.686C1449.61 520.88 1441.38 521.557 1434.59 525.496L1181.29 672.462C1175.69 675.712 1171.61 680.877 1169.97 686.777L1092.09 968.053C1090.31 974.465 1091.6 981.122 1095.61 986.251L1250.75 1184.58C1255.45 1190.6 1263.28 1193.73 1271.46 1192.88Z" stroke="url(#paint11_linear_322_248)" stroke-width="4"/>
<path opacity="0.188406" d="M1230.19 1179.55L1501.29 1163.37C1508.35 1162.95 1515.06 1159.73 1519.63 1154.57L1720.05 928.289C1724.24 923.556 1726.27 917.608 1725.67 911.789L1698.72 648.583C1697.99 641.464 1693.42 635.361 1686.51 632.265L1458.68 530.226C1451.77 527.131 1443.39 527.439 1436.29 531.051L1173.69 664.575C1167.89 667.526 1163.48 672.409 1161.47 678.119L1065.35 951.104C1063.15 957.335 1064.02 963.948 1067.72 969.19L1209.71 1170.38C1214.09 1176.58 1221.84 1180.05 1230.19 1179.55Z" stroke="url(#paint12_linear_322_248)" stroke-width="4"/>
<path opacity="0.202899" d="M1189.87 1165.57L1461.46 1161.25C1468.58 1161.13 1475.51 1158.26 1480.41 1153.39L1695.39 939.594C1699.86 935.153 1702.25 929.437 1702.03 923.717L1692.15 664.093C1691.88 657.002 1687.64 650.73 1680.82 647.34L1460.18 537.582C1453.37 534.193 1444.86 534.125 1437.46 537.4L1166.51 657.327C1160.54 659.969 1155.85 664.542 1153.49 670.029L1039.72 934.171C1037.13 940.191 1037.58 946.735 1040.96 952.074L1169.64 1155.51C1173.68 1161.89 1181.35 1165.71 1189.87 1165.57Z" stroke="url(#paint13_linear_322_248)" stroke-width="4"/>
<path opacity="0.217391" d="M1150.58 1151L1421.76 1158.35C1428.93 1158.54 1436.04 1156.03 1441.23 1151.46L1669.91 950.508C1674.61 946.378 1677.33 940.922 1677.48 935.331L1684.38 679.906C1684.57 672.859 1680.66 666.42 1673.95 662.731L1461.07 545.718C1454.36 542.03 1445.73 541.575 1438.05 544.506L1159.71 650.722C1153.61 653.047 1148.69 657.291 1146 662.527L1015.22 917.299C1012.26 923.084 1012.3 929.532 1015.35 934.953L1130.58 1140.01C1134.28 1146.59 1141.88 1150.76 1150.58 1151Z" stroke="url(#paint14_linear_322_248)" stroke-width="4"/>
<path opacity="0.231884" d="M1112.32 1135.9L1382.24 1154.69C1389.42 1155.19 1396.69 1153.04 1402.14 1148.8L1643.63 961.006C1648.52 957.2 1651.55 952.027 1652.05 946.592L1675.39 695.963C1676.04 688.974 1672.46 682.371 1665.86 678.379L1461.29 554.594C1454.69 550.601 1445.95 549.75 1438.01 552.328L1153.24 644.762C1147.06 646.767 1141.93 650.667 1138.95 655.63L991.839 900.532C988.517 906.06 988.165 912.391 990.872 917.876L1092.59 1123.95C1095.93 1130.72 1103.46 1135.28 1112.32 1135.9Z" stroke="url(#paint15_linear_322_248)" stroke-width="4"/>
<path opacity="0.246377" d="M1075.15 1120.31L1342.96 1150.29C1350.13 1151.1 1357.51 1149.32 1363.19 1145.41L1616.58 971.066C1621.63 967.592 1624.92 962.72 1625.76 957.461L1665.16 712.205C1666.27 705.29 1663.03 698.526 1656.55 694.223L1460.79 564.169C1454.31 559.867 1445.47 558.609 1437.29 560.826L1147.06 639.447C1140.84 641.133 1135.56 644.681 1132.31 649.355L969.559 883.913C965.913 889.168 965.176 895.36 967.539 900.895L1055.7 1107.39C1058.67 1114.35 1066.12 1119.3 1075.15 1120.31Z" stroke="url(#paint16_linear_322_248)" stroke-width="4"/>
<path opacity="0.26087" d="M1039.09 1104.32L1303.95 1145.19C1311.1 1146.29 1318.56 1144.88 1324.43 1141.31L1588.79 980.668C1593.95 977.529 1597.47 972.968 1598.64 967.905L1653.67 728.573C1655.24 721.748 1652.36 714.825 1646.01 710.208L1459.51 574.402C1453.17 569.784 1444.25 568.109 1435.84 569.957L1141.14 634.777C1134.91 636.148 1129.51 639.342 1126.04 643.716L948.374 867.487C944.431 872.453 943.325 878.49 945.338 884.057L1019.95 1090.38C1022.54 1097.54 1029.9 1102.9 1039.09 1104.32Z" stroke="url(#paint17_linear_322_248)" stroke-width="4"/>
<path opacity="0.275362" d="M1004.17 1087.96L1265.29 1139.39C1272.38 1140.78 1279.88 1139.74 1285.91 1136.52L1560.28 989.789C1565.53 986.983 1569.24 982.74 1570.71 977.888L1640.93 745.008C1642.96 738.289 1640.43 731.211 1634.24 726.274L1457.41 585.247C1451.22 580.309 1442.24 578.205 1433.63 579.679L1135.44 630.75C1129.23 631.814 1123.75 634.656 1120.08 638.722L928.271 851.292C924.059 855.96 922.6 861.825 924.26 867.409L985.379 1072.98C987.565 1080.33 994.824 1086.12 1004.17 1087.96Z" stroke="url(#paint18_linear_322_248)" stroke-width="4"/>
<path opacity="0.289855" d="M970.389 1071.31L1226.99 1132.92C1234.01 1134.61 1241.53 1133.93 1247.68 1131.05L1531.08 998.412C1536.37 995.933 1540.26 992.009 1542 987.379L1626.93 761.453C1629.41 754.857 1627.25 747.629 1621.23 742.368L1454.44 596.658C1448.42 591.396 1439.4 588.855 1430.62 589.948L1129.91 627.365C1123.75 628.131 1118.23 630.628 1114.39 634.385L909.231 835.373C904.779 839.735 902.982 845.415 904.287 851L952.009 1055.25C953.772 1062.8 960.909 1069.03 970.389 1071.31Z" stroke="url(#paint19_linear_322_248)" stroke-width="4"/>
<path opacity="0.304348" d="M937.781 1054.41L1189.12 1125.82C1196.04 1127.79 1203.54 1127.46 1209.79 1124.93L1501.22 1006.51C1506.54 1004.35 1510.56 1000.75 1512.55 996.346L1611.67 777.848C1614.6 771.391 1612.82 764.02 1606.99 758.431L1450.57 608.586C1444.74 602.997 1435.7 600.009 1426.77 600.716L1124.52 624.615C1118.43 625.096 1112.9 627.257 1108.93 630.706L891.242 819.767C886.577 823.819 884.459 829.302 885.407 834.872L919.873 1037.26C921.189 1044.99 928.181 1051.69 937.781 1054.41Z" stroke="url(#paint20_linear_322_248)" stroke-width="4"/>
<path opacity="0.318841" d="M906.347 1037.34L1151.71 1118.12C1158.51 1120.36 1165.97 1120.38 1172.28 1118.17L1470.74 1014.08C1476.05 1012.22 1480.18 1008.93 1482.41 1004.76L1595.15 794.14C1598.53 787.839 1597.15 780.332 1591.52 774.414L1445.75 620.983C1440.13 615.065 1431.11 611.623 1422.05 611.939L1119.22 622.497C1113.24 622.706 1107.72 624.544 1103.64 627.69L874.278 804.513C869.426 808.254 867.004 813.531 867.596 819.071L888.984 1019.06C889.829 1026.97 896.648 1034.14 906.347 1037.34Z" stroke="url(#paint21_linear_322_248)" stroke-width="4"/>
<path opacity="0.333333" d="M876.092 1020.13L1114.81 1109.84C1121.47 1112.34 1128.85 1112.69 1135.2 1110.82L1439.66 1021.08C1444.94 1019.53 1449.15 1016.53 1451.6 1012.61L1577.39 810.274C1581.2 804.144 1580.23 796.51 1574.85 790.263L1439.95 633.796C1434.57 627.55 1425.59 623.649 1416.43 623.571L1113.99 621.005C1108.12 620.956 1102.64 622.485 1098.47 625.336L858.317 789.651C853.304 793.081 850.594 798.145 850.832 803.64L859.36 1000.72C859.709 1008.79 866.319 1016.46 876.092 1020.13Z" stroke="url(#paint22_linear_322_248)" stroke-width="4"/>
<path opacity="0.347826" d="M847.015 1002.86L1078.45 1101.01C1084.94 1103.76 1092.23 1104.45 1098.6 1102.89L1408.02 1027.52C1413.25 1026.24 1417.53 1023.54 1420.16 1019.86L1558.4 826.194C1562.64 820.254 1562.09 812.502 1556.97 805.93L1433.14 646.975C1428.02 640.403 1419.13 636.038 1409.89 635.565L1108.77 620.133C1103.03 619.839 1097.61 621.074 1093.38 623.639L843.332 775.215C838.181 778.338 835.2 783.182 835.086 788.618L831.008 982.308C830.835 990.524 837.199 998.693 847.015 1002.86Z" stroke="url(#paint23_linear_322_248)" stroke-width="4"/>
<path opacity="0.362319" d="M819.114 985.56L1042.67 1091.67C1048.98 1094.67 1056.15 1095.66 1062.52 1094.42L1375.86 1033.36C1381.03 1032.36 1385.35 1029.94 1388.16 1026.49L1538.19 841.85C1542.85 836.115 1542.75 828.258 1537.93 821.365L1425.3 660.465C1420.47 653.572 1411.7 648.742 1402.41 647.873L1103.53 619.87C1097.94 619.346 1092.6 620.303 1088.32 622.592L829.297 761.242C824.029 764.061 820.793 768.682 820.33 774.044L803.936 963.877C803.216 972.22 809.289 980.896 819.114 985.56Z" stroke="url(#paint24_linear_322_248)" stroke-width="4"/>
<path opacity="0.376812" d="M792.377 968.295L1007.49 1081.86C1013.61 1085.09 1020.64 1086.37 1026.99 1085.43L1343.21 1038.61C1348.31 1037.85 1352.66 1035.7 1355.62 1032.48L1516.8 857.192C1521.87 851.676 1522.23 843.73 1517.73 836.525L1416.4 674.211C1411.9 667.006 1403.28 661.714 1393.97 660.448L1098.24 620.208C1092.81 619.469 1087.54 620.163 1083.24 622.188L816.178 747.765C810.815 750.287 807.338 754.681 806.531 759.957L778.142 945.492C776.849 953.941 782.582 963.124 792.377 968.295Z" stroke="url(#paint25_linear_322_248)" stroke-width="4"/>
<path opacity="0.391304" d="M766.792 951.11L972.961 1071.6C978.864 1075.05 985.733 1076.62 992.046 1075.97L1310.12 1043.23C1315.13 1042.72 1319.5 1040.83 1322.6 1037.83L1494.24 872.17C1499.71 866.891 1500.54 858.873 1496.4 851.366L1406.42 688.16C1402.28 680.654 1393.85 674.905 1384.56 673.244L1092.85 621.136C1087.58 620.195 1082.41 620.642 1078.09 622.414L803.944 734.817C798.502 737.048 794.799 741.213 793.652 746.391L753.618 927.217C751.73 935.744 757.07 945.428 766.792 951.11Z" stroke="url(#paint26_linear_322_248)" stroke-width="4"/>
<path opacity="0.405797" d="M742.339 934.05L939.096 1060.93C944.77 1064.59 951.467 1066.43 957.73 1066.06L1276.62 1047.23C1281.55 1046.94 1285.92 1045.3 1289.15 1042.52L1470.54 886.74C1476.4 881.712 1477.72 873.641 1473.98 865.848L1395.34 702.256C1391.6 694.463 1383.41 688.266 1374.15 686.214L1087.33 622.642C1082.22 621.511 1077.16 621.726 1072.83 623.257L792.557 722.428C787.052 724.376 783.134 728.312 781.655 733.379L730.351 909.111C727.848 917.686 732.737 927.859 742.339 934.05Z" stroke="url(#paint27_linear_322_248)" stroke-width="4"/>
<path opacity="0.42029" d="M718.998 917.159L905.925 1049.89C911.356 1053.74 917.867 1055.85 924.068 1055.75L1242.76 1050.59C1247.59 1050.52 1251.97 1049.1 1255.31 1046.55L1445.74 900.857C1451.97 896.093 1453.8 887.993 1450.49 879.934L1383.17 716.441C1379.85 708.382 1371.95 701.75 1362.76 699.311L1081.63 624.711C1076.7 623.402 1071.74 623.398 1067.42 624.701L781.978 710.627C776.424 712.299 772.304 716.005 770.497 720.952L708.325 891.234C705.188 899.824 709.569 910.463 718.998 917.159Z" stroke="url(#paint28_linear_322_248)" stroke-width="4"/>
<path opacity="0.434783" d="M696.745 900.475L873.469 1038.51C878.643 1042.55 884.959 1044.9 891.088 1045.06L1208.58 1053.31C1213.31 1053.44 1217.69 1052.25 1221.13 1049.9L1419.87 914.478C1426.45 909.994 1428.81 901.889 1425.96 893.589L1369.9 730.66C1367.04 722.359 1359.46 715.31 1350.37 712.49L1075.73 627.329C1070.97 625.852 1066.12 625.643 1061.8 626.727L772.166 699.441C766.575 700.845 762.262 704.32 760.136 709.137L687.513 873.644C683.731 882.212 687.541 893.287 696.745 900.475Z" stroke="url(#paint29_linear_322_248)" stroke-width="4"/>
<path opacity="0.449275" d="M675.555 884.037L841.75 1026.83C846.656 1031.05 852.768 1033.63 858.819 1034.04L1174.13 1055.38C1178.76 1055.69 1183.13 1054.72 1186.67 1052.57L1392.98 927.566C1399.9 923.373 1402.79 915.294 1400.43 906.78L1355.52 744.857C1353.16 736.343 1345.95 728.899 1336.98 725.705L1069.59 630.479C1064.99 628.844 1060.25 628.439 1055.94 629.316L763.082 688.894C757.462 690.037 752.967 693.284 750.527 697.961L667.888 856.398C663.452 864.902 666.634 876.372 675.555 884.037Z" stroke="url(#paint30_linear_322_248)" stroke-width="4"/>
<path opacity="0.463768" d="M655.397 867.879L810.784 1014.89C815.411 1019.27 821.311 1022.07 827.278 1022.72L1139.44 1056.8C1143.98 1057.29 1148.33 1056.52 1151.97 1054.57L1365.09 940.084C1372.34 936.194 1375.78 928.173 1373.94 919.479L1340.04 758.977C1338.21 750.284 1331.42 742.473 1322.6 738.913L1063.16 634.146C1058.74 632.36 1054.1 631.77 1049.8 632.447L754.678 679.01C749.036 679.9 744.366 682.918 741.619 687.448L649.413 839.549C644.321 847.948 646.817 859.761 655.397 867.879Z" stroke="url(#paint31_linear_322_248)" stroke-width="4"/>
<path opacity="0.478261" d="M636.243 852.03L780.586 1002.72C784.925 1007.25 790.607 1010.26 796.487 1011.15L1104.56 1057.56C1109.01 1058.23 1113.36 1057.65 1117.08 1055.88L1336.27 951.996C1343.81 948.422 1347.81 940.493 1346.53 931.658L1323.48 772.966C1322.2 764.13 1315.86 755.985 1307.23 752.071L1056.43 638.309C1052.17 636.378 1047.63 635.61 1043.35 636.097L746.908 669.808C741.251 670.452 736.411 673.242 733.365 677.617L632.048 823.146C626.305 831.395 628.062 843.489 636.243 852.03Z" stroke="url(#paint32_linear_322_248)" stroke-width="4"/>
<path opacity="0.492754" d="M618.062 836.521L751.169 990.361C755.211 995.032 760.671 998.245 766.46 999.359L1069.55 1057.66C1073.91 1058.5 1078.25 1058.11 1082.05 1056.53L1306.56 963.273C1314.38 960.024 1318.93 952.226 1318.23 943.292L1305.85 786.771C1305.14 777.837 1299.3 769.393 1290.89 765.137L1049.35 642.95C1045.25 640.879 1040.81 639.94 1036.54 640.243L739.726 661.308C734.057 661.711 729.053 664.274 725.714 668.487L615.747 807.238C609.365 815.29 610.338 827.593 618.062 836.521Z" stroke="url(#paint33_linear_322_248)" stroke-width="4"/>
<path opacity="0.507246" d="M600.822 821.377L722.541 977.847C726.277 982.649 731.512 986.056 737.209 987.393L1034.44 1057.12C1038.71 1058.12 1043.05 1057.91 1046.94 1056.51L1276 973.886C1284.08 970.972 1289.18 963.344 1289.07 954.357L1287.17 800.342C1287.06 791.355 1281.75 782.656 1273.58 778.07L1041.89 648.048C1037.95 645.838 1033.6 644.732 1029.34 644.857L733.079 653.525C727.401 653.691 722.237 656.028 718.61 660.073L600.457 791.865C593.457 799.674 593.61 812.105 600.822 821.377Z" stroke="url(#paint34_linear_322_248)" stroke-width="4"/>
<path opacity="0.521739" d="M584.496 806.623L694.713 965.216C698.134 970.139 703.141 973.732 708.746 975.288L999.276 1055.92C1003.47 1057.09 1007.81 1057.06 1011.79 1055.82L1244.65 983.808C1252.96 981.237 1258.61 973.821 1259.11 964.831L1267.47 813.631C1267.96 804.641 1263.21 795.731 1255.31 790.831L1034.02 653.579C1030.24 651.234 1025.98 649.964 1021.72 649.914L726.921 646.473C721.233 646.406 715.911 648.516 712.004 652.386L586.13 777.067C578.538 784.587 577.848 797.057 584.496 806.623Z" stroke="url(#paint35_linear_322_248)" stroke-width="4"/>
<path opacity="0.536232" d="M569.051 792.284L667.685 952.503C670.784 957.536 675.56 961.311 681.072 963.083L964.108 1054.09C968.234 1055.41 972.579 1055.56 976.649 1054.49L1212.56 993.017C1221.08 990.796 1227.26 983.633 1228.37 974.692L1246.77 826.594C1247.88 817.653 1243.72 808.581 1236.12 803.384L1025.72 659.524C1022.09 657.042 1017.91 655.609 1013.64 655.387L721.194 640.163C715.499 639.866 710.02 641.748 705.837 645.438L572.705 762.875C564.557 770.063 563.014 782.478 569.051 792.284Z" stroke="url(#paint36_linear_322_248)" stroke-width="4"/>
<path opacity="0.550725" d="M554.46 778.383L641.464 939.742C644.233 944.877 648.775 948.828 654.194 950.816L928.981 1051.61C933.04 1053.1 937.4 1053.42 941.564 1052.53L1179.79 1001.49C1188.49 999.627 1195.18 992.759 1196.91 983.92L1225.13 839.191C1226.85 830.351 1223.29 821.167 1216.01 815.69L1016.96 665.856C1013.48 663.236 1009.37 661.639 1005.1 661.246L715.849 634.604C710.145 634.078 704.511 635.73 700.057 639.233L560.127 749.318C551.467 756.131 549.075 768.396 554.46 778.383Z" stroke="url(#paint37_linear_322_248)" stroke-width="4"/>
<path opacity="0.565217" d="M540.693 764.945L616.048 926.971C618.479 932.198 622.783 936.321 628.109 938.525L893.939 1048.52C897.936 1050.17 902.319 1050.66 906.583 1049.94L1146.39 1009.22C1155.25 1007.71 1162.43 1001.18 1164.75 992.495L1202.56 851.385C1204.89 842.7 1201.94 833.455 1195.02 827.72L1007.7 672.553C1004.37 669.794 1000.33 668.03 996.042 667.463L710.831 629.803C705.117 629.048 699.327 630.467 694.609 633.778L548.337 736.419C539.214 742.82 535.993 754.84 540.693 764.945Z" stroke="url(#paint38_linear_322_248)" stroke-width="4"/>
<path opacity="0.57971" d="M527.721 751.995L591.434 914.224C593.519 919.531 597.582 923.824 602.814 926.244L859.027 1044.8C862.967 1046.63 867.379 1047.3 871.75 1046.74L1112.42 1016.18C1121.41 1015.04 1129.04 1008.88 1131.95 1000.4L1179.12 863.144C1182.04 854.665 1179.71 845.412 1173.16 839.438L997.933 679.59C994.75 676.687 990.772 674.752 986.461 674.01L706.083 625.765C700.357 624.78 694.413 625.961 689.435 629.073L537.274 724.197C527.747 730.153 523.731 741.837 527.721 751.995Z" stroke="url(#paint39_linear_322_248)" stroke-width="4"/>
<path opacity="0.594203" d="M515.515 739.557L567.619 901.535C569.349 906.912 573.166 911.37 578.301 914.01L824.289 1040.49C828.174 1042.48 832.624 1043.34 837.109 1042.96L1077.94 1022.36C1087.04 1021.59 1095.07 1015.83 1098.55 1007.61L1154.85 874.441C1158.33 866.216 1156.62 857.005 1150.47 850.816L987.624 686.941C984.592 683.89 980.673 681.777 976.333 680.856L701.548 622.491C695.812 621.273 689.713 622.211 684.482 625.118L526.884 712.664C517.012 718.148 512.251 729.411 515.515 739.557Z" stroke="url(#paint40_linear_322_248)" stroke-width="4"/>
<path opacity="0.608696" d="M504.044 727.658L544.596 888.937C545.962 894.373 549.527 898.994 554.562 901.856L789.77 1035.58C793.603 1037.76 798.096 1038.81 802.702 1038.61L1043.01 1027.76C1052.18 1027.35 1060.58 1022.03 1064.59 1014.11L1129.79 885.252C1133.8 877.326 1132.7 868.206 1126.97 861.824L976.755 694.581C973.876 691.375 970.014 689.079 965.638 687.971L697.172 619.98C691.425 618.525 685.174 619.214 679.694 621.908L517.11 701.832C506.96 706.822 501.513 717.589 504.044 727.658Z" stroke="url(#paint41_linear_322_248)" stroke-width="4"/>
<path opacity="0.623188" d="M493.275 716.324L522.352 876.463C523.347 881.944 526.653 886.725 531.583 889.814L755.509 1030.11C759.292 1032.48 763.835 1033.73 768.569 1033.7L1007.69 1032.37C1016.91 1032.32 1025.63 1027.47 1030.13 1019.88L1103.98 895.557C1108.48 887.969 1107.98 878.986 1102.69 872.437L965.303 702.48C962.583 699.116 958.776 696.626 954.359 695.324L692.894 618.228C687.138 616.531 680.735 616.964 675.015 619.437L507.897 691.707C497.534 696.188 491.472 706.394 493.275 716.324Z" stroke="url(#paint42_linear_322_248)" stroke-width="4"/>
<path opacity="0.637681" d="M483.176 705.583L500.881 864.146C501.496 869.658 504.534 874.595 509.353 877.914L721.555 1024.08C725.286 1026.65 729.885 1028.11 734.754 1028.27L972.048 1036.19C981.276 1036.5 990.262 1032.12 995.226 1024.91L1077.47 905.341C1082.43 898.125 1082.51 889.32 1077.67 882.631L953.253 710.615C950.701 707.085 946.948 704.392 942.486 702.886L688.661 617.231C682.898 615.286 676.349 615.454 670.397 617.699L499.196 682.292C488.69 686.256 482.089 695.852 483.176 705.583Z" stroke="url(#paint43_linear_322_248)" stroke-width="4"/>
<path opacity="0.652174" d="M473.702 695.461L480.162 852.016C480.39 857.545 483.15 862.634 487.848 866.187L687.942 1017.52C691.618 1020.3 696.277 1021.98 701.287 1022.34L936.129 1039.22C945.342 1039.88 954.543 1036 959.918 1029.18L1050.3 914.591C1055.68 907.775 1056.31 899.186 1051.94 892.382L940.582 718.955C938.206 715.255 934.512 712.348 930 710.627L684.409 616.978C678.643 614.779 671.952 614.673 665.778 616.683L490.953 673.59C480.369 677.035 473.311 685.983 473.702 695.461Z" stroke="url(#paint44_linear_322_248)" stroke-width="4"/>
<path opacity="0.666667" d="M464.818 685.981L460.183 840.102C460.016 845.631 462.489 850.867 467.055 854.657L654.716 1010.44C658.332 1013.45 663.053 1015.37 668.209 1015.93L900.002 1041.45C909.171 1042.46 918.533 1039.08 924.275 1032.68L1022.52 923.293C1028.26 916.9 1029.43 908.56 1025.54 901.669L927.279 727.471C925.093 723.596 921.46 720.463 916.897 718.515L680.085 617.457C674.322 614.998 667.498 614.608 661.113 616.374L483.123 665.599C472.526 668.53 465.094 676.806 464.818 685.981Z" stroke="url(#paint45_linear_322_248)" stroke-width="4"/>
<path opacity="0.681159" d="M456.476 677.168L440.923 828.434C440.357 833.944 442.529 839.32 446.95 843.351L621.914 1002.88C625.463 1006.11 630.247 1008.29 635.553 1009.07L863.727 1042.9C872.824 1044.25 882.292 1041.37 888.353 1035.41L994.167 931.441C1000.23 925.486 1001.89 917.424 998.497 910.474L913.327 736.135C911.347 732.081 907.783 728.708 903.168 726.521L675.63 618.654C669.879 615.928 662.931 615.245 656.349 616.759L475.659 658.319C465.11 660.745 457.384 668.337 456.476 677.168Z" stroke="url(#paint46_linear_322_248)" stroke-width="4"/>
<path opacity="0.695652" d="M448.626 669.042L422.36 817.038C421.389 822.511 423.248 828.02 427.51 832.294L589.573 994.847C593.044 998.328 597.889 1000.77 603.348 1001.79L827.362 1043.57C836.356 1045.25 845.88 1042.87 852.213 1037.36L965.283 939.029C971.615 933.522 973.749 925.762 970.853 918.781L898.714 744.919C896.956 740.682 893.471 737.057 888.807 734.615L670.985 620.552C665.257 617.553 658.198 616.567 651.433 617.822L468.512 651.748C458.068 653.685 450.125 660.593 448.626 669.042Z" stroke="url(#paint47_linear_322_248)" stroke-width="4"/>
<path opacity="0.710145" d="M441.218 661.621L404.472 805.94C403.093 811.356 404.626 816.988 408.71 821.506L557.733 986.376C561.112 990.115 566.014 992.842 571.626 994.105L790.967 1043.48C799.832 1045.47 809.362 1043.58 815.919 1038.53L935.911 946.049C942.468 940.995 945.041 933.557 942.648 926.574L883.431 753.79C881.916 749.368 878.522 745.479 873.812 742.767L666.099 623.131C660.406 619.852 653.25 618.554 646.319 619.542L461.64 645.881C451.352 647.348 443.265 653.581 441.218 661.621Z" stroke="url(#paint48_linear_322_248)" stroke-width="4"/>
<path opacity="0.724638" d="M434.198 654.918L387.234 795.163C385.446 800.501 386.64 806.245 390.527 811.007L526.428 977.494C529.7 981.501 534.651 984.532 540.415 986.054L754.601 1042.63C763.31 1044.93 772.799 1043.52 779.536 1038.92L906.093 952.498C912.831 947.897 915.809 940.797 913.92 933.839L867.47 762.718C866.22 758.113 862.933 753.947 858.184 750.948L660.915 626.367C655.273 622.804 648.039 621.185 640.96 621.901L454.998 640.713C444.911 641.734 436.745 647.31 434.198 654.918Z" stroke="url(#paint49_linear_322_248)" stroke-width="4"/>
<path opacity="0.73913" d="M427.506 648.943L370.617 784.729C368.421 789.969 369.262 795.812 372.931 800.815L495.692 968.228C498.836 972.516 503.826 975.869 509.737 977.665L718.319 1041.05C726.846 1043.65 736.25 1042.69 743.126 1038.54L875.868 958.373C882.744 954.221 886.095 947.471 884.71 940.566L850.823 771.674C849.863 766.888 846.7 762.431 841.923 759.13L655.381 630.236C649.806 626.384 642.514 624.436 635.307 624.875L448.54 636.241C438.692 636.84 430.506 641.784 427.506 648.943Z" stroke="url(#paint50_linear_322_248)" stroke-width="4"/>
<path opacity="0.753623" d="M421.086 643.704L354.592 774.658C351.993 779.778 352.467 785.707 355.894 790.947L465.556 958.611C468.55 963.189 473.565 966.883 479.616 968.967L682.177 1038.76C690.499 1041.62 699.778 1041.11 706.752 1037.4L845.277 963.673C852.251 959.961 855.944 953.569 855.058 946.745L833.488 780.625C832.844 775.663 829.828 770.904 825.035 767.285L649.446 634.71C643.958 630.566 636.631 628.284 629.316 628.441L442.22 632.456C432.644 632.661 424.489 637.002 421.086 643.704Z" stroke="url(#paint51_linear_322_248)" stroke-width="4"/>
<path opacity="0.768116" d="M414.878 639.202L339.132 764.968C336.134 769.947 336.228 775.946 339.39 781.417L436.052 948.675C438.869 953.55 443.892 957.604 450.072 959.991L646.232 1035.76C654.325 1038.89 663.444 1038.8 670.48 1035.51L814.362 968.395C821.398 965.113 825.401 959.086 825.008 952.368L815.465 789.541C815.164 784.411 812.32 779.34 807.527 775.388L643.062 639.758C637.683 635.321 630.346 632.701 622.946 632.574L435.995 629.351C426.718 629.191 418.637 632.96 414.878 639.202Z" stroke="url(#paint52_linear_322_248)" stroke-width="4"/>
<path opacity="0.782609" d="M408.817 635.435L324.201 755.676C320.812 760.492 320.513 766.543 323.384 772.236L407.205 938.455C409.816 943.632 414.824 948.064 421.12 950.767L610.53 1032.1C618.374 1035.47 627.301 1035.77 634.366 1032.9L783.159 972.542C790.224 969.676 794.508 964.016 794.597 957.43L796.75 798.39C796.822 793.103 794.179 787.713 789.406 783.412L636.18 645.348C630.932 640.619 623.613 637.658 616.15 637.245L429.816 626.917C420.856 626.42 412.886 629.653 408.817 635.435Z" stroke="url(#paint53_linear_322_248)" stroke-width="4"/>
<path opacity="0.797101" d="M402.847 632.396L309.769 746.794C305.999 751.427 305.297 757.512 307.851 763.414L379.043 927.984C381.415 933.468 386.382 938.292 392.778 941.325L575.126 1027.78C582.702 1031.38 591.411 1032.05 598.475 1029.58L751.714 976.114C758.778 973.649 763.313 968.357 763.873 961.927L777.353 807.141C777.826 801.712 775.415 795.996 770.685 791.334L628.759 651.445C623.668 646.427 616.396 643.125 608.893 642.425L423.639 625.141C415.013 624.337 407.181 627.069 402.847 632.396Z" stroke="url(#paint54_linear_322_248)" stroke-width="4"/>
<path opacity="0.811594" d="M396.903 630.077L295.799 738.336C291.662 742.766 290.545 748.863 292.755 754.961L351.585 917.302C353.683 923.092 358.578 928.323 365.053 931.695L540.065 1022.85C547.355 1026.64 555.824 1027.66 562.861 1025.58L720.061 979.115C727.098 977.035 731.858 972.11 732.875 965.857L757.275 815.763C758.178 810.21 756.034 804.166 751.376 799.133L620.754 658.013C615.847 652.712 608.651 649.071 601.133 648.086L417.416 624.014C409.131 622.929 401.462 625.196 396.903 630.077Z" stroke="url(#paint55_linear_322_248)" stroke-width="4"/>
<path opacity="0.826087" d="M390.928 628.465L282.263 730.31C277.771 734.52 276.232 740.608 278.072 746.884L324.856 906.447C326.642 912.538 331.429 918.186 337.96 921.908L505.395 1017.32C512.386 1021.3 520.596 1022.64 527.584 1020.92L688.245 981.549C695.232 979.836 700.192 975.275 701.648 969.221L736.531 824.226C737.892 818.571 736.052 812.2 731.496 806.788L612.13 665.013C607.435 659.437 600.348 655.463 592.836 654.195L411.103 623.52C403.165 622.18 395.674 624.016 390.928 628.465Z" stroke="url(#paint56_linear_322_248)" stroke-width="4"/>
<path opacity="0.84058" d="M384.861 627.54L269.121 722.724C264.292 726.695 262.323 732.751 263.768 739.185L298.869 895.459C300.303 901.841 304.943 907.914 311.502 911.991L471.159 1011.23C477.838 1015.38 485.775 1017.01 492.694 1015.64L656.303 983.421C663.222 982.058 668.357 977.856 670.235 972.019L715.13 832.499C716.974 826.767 715.479 820.075 711.06 814.28L602.851 672.405C598.396 666.564 591.449 662.264 583.967 660.717L404.654 623.641C397.063 622.072 389.761 623.51 384.861 627.54Z" stroke="url(#paint57_linear_322_248)" stroke-width="4"/>
<path opacity="0.855072" d="M378.65 627.284L256.345 715.585C251.196 719.303 248.792 725.302 249.818 731.87L273.642 884.379C274.682 891.039 279.132 897.538 285.69 901.974L437.4 1004.6C443.758 1008.9 451.413 1010.8 458.246 1009.77L624.279 984.74C631.113 983.709 636.401 979.86 638.682 974.257L693.091 840.554C695.443 834.775 694.334 827.773 690.09 821.596L592.888 680.149C588.701 674.057 581.927 669.442 574.498 667.621L398.027 624.362C390.779 622.586 383.674 623.657 378.65 627.284Z" stroke="url(#paint58_linear_322_248)" stroke-width="4"/>
<path opacity="0.869565" d="M372.233 627.673L243.893 708.897C238.443 712.346 235.6 718.263 236.185 724.94L249.177 873.25C249.782 880.168 253.995 887.088 260.518 891.884L404.151 997.479C410.181 1001.91 417.546 1004.06 424.282 1003.34L592.205 985.513C598.941 984.798 604.363 981.295 607.025 975.939L670.427 848.363C673.307 842.57 672.627 835.274 668.598 828.719L582.207 688.202C578.318 681.876 571.747 676.959 564.391 674.869L391.172 625.662C384.26 623.698 377.354 624.432 372.233 627.673Z" stroke="url(#paint59_linear_322_248)" stroke-width="4"/>
<path opacity="0.884058" d="M365.56 628.68L231.735 702.661C226.004 705.829 222.722 711.638 222.846 718.394L225.482 862.115C225.613 869.264 229.538 876.596 235.992 881.748L371.452 989.891C377.149 994.438 384.222 996.809 390.851 996.392L560.123 985.751C566.752 985.334 572.29 982.171 575.311 977.075L647.163 855.9C650.586 850.127 650.378 842.561 646.607 835.641L570.788 696.521C567.223 689.98 560.887 684.776 553.625 682.425L384.048 627.518C377.464 625.386 370.756 625.808 365.56 628.68Z" stroke="url(#paint60_linear_322_248)" stroke-width="4"/>
<path opacity="0.898551" d="M358.584 630.279L219.839 696.879C213.848 699.755 210.129 705.429 209.775 712.234L202.562 851.018C202.18 858.366 205.766 866.092 212.113 871.593L339.339 981.873C344.7 986.52 351.481 989.096 357.995 988.962L528.074 985.466C534.589 985.332 540.226 982.5 543.587 977.674L623.326 863.139C627.304 857.425 627.61 849.619 624.141 842.351L558.613 705.062C555.4 698.331 549.327 692.858 542.178 690.252L376.619 629.908C370.35 627.624 363.837 627.758 358.584 630.279Z" stroke="url(#paint61_linear_322_248)" stroke-width="4"/>
<path opacity="0.913043" d="M351.253 632.437L208.168 691.55C201.937 694.124 197.786 699.636 196.941 706.456L180.405 840.002C179.475 847.509 182.672 855.604 188.873 861.442L307.838 973.46C312.863 978.192 319.353 980.957 325.748 981.091L496.089 984.669C502.485 984.804 508.209 982.295 511.886 977.747L598.939 870.057C603.476 864.444 604.334 856.435 601.211 848.842L545.661 713.782C542.824 706.885 537.041 701.164 530.022 698.312L368.837 632.806C362.872 630.383 356.548 630.25 351.253 632.437Z" stroke="url(#paint62_linear_322_248)" stroke-width="4"/>
<path opacity="0.927536" d="M343.524 635.122L196.69 686.672C190.242 688.936 185.665 694.259 184.321 701.059L159.005 829.109C157.498 836.732 160.255 845.161 166.271 851.322L276.978 964.69C281.668 969.493 287.872 972.431 294.147 972.82L464.207 983.377C470.482 983.767 476.28 981.574 480.253 977.308L574.032 876.634C579.129 871.163 580.573 862.996 577.84 855.109L531.921 722.637C529.482 715.602 524.014 709.655 517.142 706.565L360.666 636.186C354.992 633.634 348.849 633.253 343.524 635.122Z" stroke="url(#paint63_linear_322_248)" stroke-width="4"/>
<path opacity="0.942029" d="M335.359 638.299L185.377 682.24C178.732 684.187 173.74 689.295 171.891 696.039L138.35 818.38C136.242 826.069 138.512 834.79 144.306 841.254L246.787 955.598C251.146 960.461 257.071 963.559 263.224 964.192L432.465 981.604C438.618 982.237 444.481 980.352 448.73 976.374L548.641 882.852C554.289 877.565 556.349 869.29 554.045 861.147L517.388 731.584C515.367 724.442 510.236 718.292 503.526 714.971L352.073 640.018C346.675 637.347 340.705 636.732 335.359 638.299Z" stroke="url(#paint64_linear_322_248)" stroke-width="4"/>
<path opacity="0.956522" d="M326.716 641.931L174.193 678.251C167.373 679.875 161.978 684.742 159.624 691.393L118.416 807.854C115.691 815.555 117.434 824.52 122.966 831.263L217.286 946.224C221.317 951.137 226.97 954.384 233.002 955.25L400.893 979.367C406.926 980.233 412.845 978.649 417.352 974.962L522.794 888.696C528.979 883.635 531.677 875.308 529.84 866.952L502.054 740.581C500.467 733.364 495.691 727.035 489.157 723.493L343.02 644.273C337.884 641.489 332.076 640.655 326.716 641.931Z" stroke="url(#paint65_linear_322_248)" stroke-width="4"/>
<path opacity="0.971014" d="M317.561 645.983L163.108 674.699C156.134 675.995 150.351 680.596 147.498 687.119L99.1818 797.566C95.8323 805.223 97.0111 814.375 102.248 821.372L188.494 936.606C192.203 941.56 197.591 944.946 203.505 946.038L369.526 976.683C375.44 977.775 381.409 976.486 386.155 973.092L496.527 894.151C503.228 889.358 506.578 881.041 505.238 872.519L485.919 749.587C484.778 742.327 480.372 735.846 474.026 732.09L333.475 648.92C328.587 646.028 322.932 644.984 317.561 645.983Z" stroke="url(#paint66_linear_322_248)" stroke-width="4"/>
<path opacity="0.985507" d="M307.865 650.416L152.095 671.577C144.987 672.543 138.835 676.854 135.491 683.212L80.6217 787.549C76.6493 795.103 77.2371 804.384 82.1452 811.605L160.431 926.783C163.822 931.771 168.955 935.29 174.753 936.6L338.397 973.574C344.195 974.884 350.209 973.884 355.176 970.784L469.876 899.211C477.067 894.723 481.071 886.48 480.256 877.844L468.987 758.564C468.301 751.295 464.278 744.685 458.131 740.724L323.41 653.928C318.757 650.931 313.245 649.685 307.865 650.416Z" stroke="url(#paint67_linear_322_248)" stroke-width="4"/>
<path d="M297.601 655.19L141.122 668.877C133.901 669.509 127.4 673.508 123.58 679.668L62.705 777.831C58.1206 785.223 58.0989 794.569 62.6489 801.983L133.11 916.792C136.189 921.809 141.074 925.454 146.76 926.978L307.535 970.057C313.22 971.58 319.274 970.866 324.448 968.061L442.874 903.864C450.521 899.719 455.176 891.614 454.902 882.92L451.264 767.471C451.036 760.226 447.405 753.512 441.468 749.355L312.797 659.262C308.368 656.16 302.987 654.719 297.601 655.19Z" stroke="url(#paint68_linear_322_248)" stroke-width="4"/>
<defs>
<linearGradient id="paint0_linear_322_248" x1="1763.15" y1="1292.01" x2="1708.31" y2="419.775" gradientUnits="userSpaceOnUse">
<stop stop-color="#5C65B4" stop-opacity="0"/>
<stop offset="1" stop-color="#010606"/>
</linearGradient>
<linearGradient id="paint1_linear_322_248" x1="1714.82" y1="1288.47" x2="1697.16" y2="429.713" gradientUnits="userSpaceOnUse">
<stop stop-color="#5C65B4" stop-opacity="0"/>
<stop offset="1" stop-color="#010606"/>
</linearGradient>
<linearGradient id="paint2_linear_322_248" x1="1666.74" y1="1283.79" x2="1684.49" y2="438.979" gradientUnits="userSpaceOnUse">
<stop stop-color="#5C65B4" stop-opacity="0"/>
<stop offset="1" stop-color="#010606"/>
</linearGradient>
<linearGradient id="paint3_linear_322_248" x1="1618.98" y1="1278" x2="1670.54" y2="447.481" gradientUnits="userSpaceOnUse">
<stop stop-color="#5C65B4" stop-opacity="0"/>
<stop offset="1" stop-color="#010606"/>
</linearGradient>
<linearGradient id="paint4_linear_322_248" x1="1571.62" y1="1271.14" x2="1655.57" y2="455.159" gradientUnits="userSpaceOnUse">
<stop stop-color="#5C65B4" stop-opacity="0"/>
<stop offset="1" stop-color="#010606"/>
</linearGradient>
<linearGradient id="paint5_linear_322_248" x1="1524.74" y1="1263.23" x2="1639.83" y2="461.985" gradientUnits="userSpaceOnUse">
<stop stop-color="#5C65B4" stop-opacity="0"/>
<stop offset="1" stop-color="#010606"/>
</linearGradient>
<linearGradient id="paint6_linear_322_248" x1="1478.41" y1="1254.33" x2="1623.56" y2="467.956" gradientUnits="userSpaceOnUse">
<stop stop-color="#5C65B4" stop-opacity="0"/>
<stop offset="1" stop-color="#010606"/>
</linearGradient>
<linearGradient id="paint7_linear_322_248" x1="1432.69" y1="1244.46" x2="1606.98" y2="473.094" gradientUnits="userSpaceOnUse">
<stop stop-color="#5C65B4" stop-opacity="0"/>
<stop offset="1" stop-color="#010606"/>
</linearGradient>
<linearGradient id="paint8_linear_322_248" x1="1387.66" y1="1233.67" x2="1590.29" y2="477.442" gradientUnits="userSpaceOnUse">
<stop stop-color="#5C65B4" stop-opacity="0"/>
<stop offset="1" stop-color="#010606"/>
</linearGradient>
<linearGradient id="paint9_linear_322_248" x1="1343.37" y1="1222.02" x2="1573.7" y2="481.064" gradientUnits="userSpaceOnUse">
<stop stop-color="#5C65B4" stop-opacity="0"/>
<stop offset="1" stop-color="#010606"/>
</linearGradient>
<linearGradient id="paint10_linear_322_248" x1="1299.89" y1="1209.54" x2="1557.4" y2="484.042" gradientUnits="userSpaceOnUse">
<stop stop-color="#5C65B4" stop-opacity="0"/>
<stop offset="1" stop-color="#010606"/>
</linearGradient>
<linearGradient id="paint11_linear_322_248" x1="1257.28" y1="1196.29" x2="1541.56" y2="486.476" gradientUnits="userSpaceOnUse">
<stop stop-color="#5C65B4" stop-opacity="0"/>
<stop offset="1" stop-color="#010606"/>
</linearGradient>
<linearGradient id="paint12_linear_322_248" x1="1215.58" y1="1182.32" x2="1526.33" y2="488.482" gradientUnits="userSpaceOnUse">
<stop stop-color="#5C65B4" stop-opacity="0"/>
<stop offset="1" stop-color="#010606"/>
</linearGradient>
<linearGradient id="paint13_linear_322_248" x1="1174.84" y1="1167.68" x2="1511.86" y2="490.194" gradientUnits="userSpaceOnUse">
<stop stop-color="#5C65B4" stop-opacity="0"/>
<stop offset="1" stop-color="#010606"/>
</linearGradient>
<linearGradient id="paint14_linear_322_248" x1="1135.12" y1="1152.43" x2="1498.27" y2="491.763" gradientUnits="userSpaceOnUse">
<stop stop-color="#5C65B4" stop-opacity="0"/>
<stop offset="1" stop-color="#010606"/>
</linearGradient>
<linearGradient id="paint15_linear_322_248" x1="1096.45" y1="1136.62" x2="1485.68" y2="493.351" gradientUnits="userSpaceOnUse">
<stop stop-color="#5C65B4" stop-opacity="0"/>
<stop offset="1" stop-color="#010606"/>
</linearGradient>
<linearGradient id="paint16_linear_322_248" x1="1058.86" y1="1120.3" x2="1474.17" y2="495.141" gradientUnits="userSpaceOnUse">
<stop stop-color="#5C65B4" stop-opacity="0"/>
<stop offset="1" stop-color="#010606"/>
</linearGradient>
<linearGradient id="paint17_linear_322_248" x1="1022.4" y1="1103.54" x2="1463.82" y2="497.327" gradientUnits="userSpaceOnUse">
<stop stop-color="#5C65B4" stop-opacity="0"/>
<stop offset="1" stop-color="#010606"/>
</linearGradient>
<linearGradient id="paint18_linear_322_248" x1="987.084" y1="1086.4" x2="1454.66" y2="500.119" gradientUnits="userSpaceOnUse">
<stop stop-color="#5C65B4" stop-opacity="0"/>
<stop offset="1" stop-color="#010606"/>
</linearGradient>
<linearGradient id="paint19_linear_322_248" x1="952.943" y1="1068.92" x2="1446.7" y2="503.742" gradientUnits="userSpaceOnUse">
<stop stop-color="#5C65B4" stop-opacity="0"/>
<stop offset="1" stop-color="#010606"/>
</linearGradient>
<linearGradient id="paint20_linear_322_248" x1="920" y1="1051.17" x2="1439.93" y2="508.428" gradientUnits="userSpaceOnUse">
<stop stop-color="#5C65B4" stop-opacity="0"/>
<stop offset="1" stop-color="#010606"/>
</linearGradient>
<linearGradient id="paint21_linear_322_248" x1="888.265" y1="1033.2" x2="1434.3" y2="514.423" gradientUnits="userSpaceOnUse">
<stop stop-color="#5C65B4" stop-opacity="0"/>
<stop offset="1" stop-color="#010606"/>
</linearGradient>
<linearGradient id="paint22_linear_322_248" x1="857.754" y1="1015.08" x2="1429.72" y2="521.977" gradientUnits="userSpaceOnUse">
<stop stop-color="#5C65B4" stop-opacity="0"/>
<stop offset="1" stop-color="#010606"/>
</linearGradient>
<linearGradient id="paint23_linear_322_248" x1="828.472" y1="996.858" x2="1426.03" y2="531.339" gradientUnits="userSpaceOnUse">
<stop stop-color="#5C65B4" stop-opacity="0"/>
<stop offset="1" stop-color="#010606"/>
</linearGradient>
<linearGradient id="paint24_linear_322_248" x1="800.426" y1="978.591" x2="1423.06" y2="542.754" gradientUnits="userSpaceOnUse">
<stop stop-color="#5C65B4" stop-opacity="0"/>
<stop offset="1" stop-color="#010606"/>
</linearGradient>
<linearGradient id="paint25_linear_322_248" x1="773.614" y1="960.336" x2="1420.55" y2="556.449" gradientUnits="userSpaceOnUse">
<stop stop-color="#5C65B4" stop-opacity="0"/>
<stop offset="1" stop-color="#010606"/>
</linearGradient>
<linearGradient id="paint26_linear_322_248" x1="748.031" y1="942.147" x2="1418.22" y2="572.626" gradientUnits="userSpaceOnUse">
<stop stop-color="#5C65B4" stop-opacity="0"/>
<stop offset="1" stop-color="#010606"/>
</linearGradient>
<linearGradient id="paint27_linear_322_248" x1="723.667" y1="924.077" x2="1415.68" y2="591.45" gradientUnits="userSpaceOnUse">
<stop stop-color="#5C65B4" stop-opacity="0"/>
<stop offset="1" stop-color="#010606"/>
</linearGradient>
<linearGradient id="paint28_linear_322_248" x1="700.511" y1="906.179" x2="1412.54" y2="613.027" gradientUnits="userSpaceOnUse">
<stop stop-color="#5C65B4" stop-opacity="0"/>
<stop offset="1" stop-color="#010606"/>
</linearGradient>
<linearGradient id="paint29_linear_322_248" x1="678.545" y1="888.502" x2="1408.32" y2="637.396" gradientUnits="userSpaceOnUse">
<stop stop-color="#5C65B4" stop-opacity="0"/>
<stop offset="1" stop-color="#010606"/>
</linearGradient>
<linearGradient id="paint30_linear_322_248" x1="657.753" y1="871.096" x2="1402.53" y2="664.506" gradientUnits="userSpaceOnUse">
<stop stop-color="#5C65B4" stop-opacity="0"/>
<stop offset="1" stop-color="#010606"/>
</linearGradient>
<linearGradient id="paint31_linear_322_248" x1="638.107" y1="854.008" x2="1394.65" y2="694.206" gradientUnits="userSpaceOnUse">
<stop stop-color="#5C65B4" stop-opacity="0"/>
<stop offset="1" stop-color="#010606"/>
</linearGradient>
<linearGradient id="paint32_linear_322_248" x1="619.581" y1="837.282" x2="1384.16" y2="726.229" gradientUnits="userSpaceOnUse">
<stop stop-color="#5C65B4" stop-opacity="0"/>
<stop offset="1" stop-color="#010606"/>
</linearGradient>
<linearGradient id="paint33_linear_322_248" x1="602.147" y1="820.963" x2="1370.58" y2="760.192" gradientUnits="userSpaceOnUse">
<stop stop-color="#5C65B4" stop-opacity="0"/>
<stop offset="1" stop-color="#010606"/>
</linearGradient>
<linearGradient id="paint34_linear_322_248" x1="585.768" y1="805.091" x2="1353.49" y2="795.594" gradientUnits="userSpaceOnUse">
<stop stop-color="#5C65B4" stop-opacity="0"/>
<stop offset="1" stop-color="#010606"/>
</linearGradient>
<linearGradient id="paint35_linear_322_248" x1="570.41" y1="789.704" x2="1332.57" y2="831.832" gradientUnits="userSpaceOnUse">
<stop stop-color="#5C65B4" stop-opacity="0"/>
<stop offset="1" stop-color="#010606"/>
</linearGradient>
<linearGradient id="paint36_linear_322_248" x1="556.032" y1="774.839" x2="1307.62" y2="868.222" gradientUnits="userSpaceOnUse">
<stop stop-color="#5C65B4" stop-opacity="0"/>
<stop offset="1" stop-color="#010606"/>
</linearGradient>
<linearGradient id="paint37_linear_322_248" x1="542.594" y1="760.529" x2="1278.6" y2="904.036" gradientUnits="userSpaceOnUse">
<stop stop-color="#5C65B4" stop-opacity="0"/>
<stop offset="1" stop-color="#010606"/>
</linearGradient>
<linearGradient id="paint38_linear_322_248" x1="530.051" y1="746.807" x2="1245.6" y2="938.538" gradientUnits="userSpaceOnUse">
<stop stop-color="#5C65B4" stop-opacity="0"/>
<stop offset="1" stop-color="#010606"/>
</linearGradient>
<linearGradient id="paint39_linear_322_248" x1="518.356" y1="733.7" x2="1208.92" y2="971.032" gradientUnits="userSpaceOnUse">
<stop stop-color="#5C65B4" stop-opacity="0"/>
<stop offset="1" stop-color="#010606"/>
</linearGradient>
<linearGradient id="paint40_linear_322_248" x1="507.46" y1="721.234" x2="1168.95" y2="1000.9" gradientUnits="userSpaceOnUse">
<stop stop-color="#5C65B4" stop-opacity="0"/>
<stop offset="1" stop-color="#010606"/>
</linearGradient>
<linearGradient id="paint41_linear_322_248" x1="497.314" y1="709.433" x2="1126.24" y2="1027.63" gradientUnits="userSpaceOnUse">
<stop stop-color="#5C65B4" stop-opacity="0"/>
<stop offset="1" stop-color="#010606"/>
</linearGradient>
<linearGradient id="paint42_linear_322_248" x1="487.863" y1="698.317" x2="1081.39" y2="1050.85" gradientUnits="userSpaceOnUse">
<stop stop-color="#5C65B4" stop-opacity="0"/>
<stop offset="1" stop-color="#010606"/>
</linearGradient>
<linearGradient id="paint43_linear_322_248" x1="479.058" y1="687.905" x2="1035.07" y2="1070.35" gradientUnits="userSpaceOnUse">
<stop stop-color="#5C65B4" stop-opacity="0"/>
<stop offset="1" stop-color="#010606"/>
</linearGradient>
<linearGradient id="paint44_linear_322_248" x1="470.838" y1="678.21" x2="987.921" y2="1086.05" gradientUnits="userSpaceOnUse">
<stop stop-color="#5C65B4" stop-opacity="0"/>
<stop offset="1" stop-color="#010606"/>
</linearGradient>
<linearGradient id="paint45_linear_322_248" x1="463.153" y1="669.245" x2="940.577" y2="1098.02" gradientUnits="userSpaceOnUse">
<stop stop-color="#5C65B4" stop-opacity="0"/>
<stop offset="1" stop-color="#010606"/>
</linearGradient>
<linearGradient id="paint46_linear_322_248" x1="455.943" y1="661.018" x2="893.597" y2="1106.43" gradientUnits="userSpaceOnUse">
<stop stop-color="#5C65B4" stop-opacity="0"/>
<stop offset="1" stop-color="#010606"/>
</linearGradient>
<linearGradient id="paint47_linear_322_248" x1="449.15" y1="653.537" x2="847.461" y2="1111.54" gradientUnits="userSpaceOnUse">
<stop stop-color="#5C65B4" stop-opacity="0"/>
<stop offset="1" stop-color="#010606"/>
</linearGradient>
<linearGradient id="paint48_linear_322_248" x1="442.719" y1="646.804" x2="802.563" y2="1113.69" gradientUnits="userSpaceOnUse">
<stop stop-color="#5C65B4" stop-opacity="0"/>
<stop offset="1" stop-color="#010606"/>
</linearGradient>
<linearGradient id="paint49_linear_322_248" x1="436.592" y1="640.821" x2="759.2" y2="1113.25" gradientUnits="userSpaceOnUse">
<stop stop-color="#5C65B4" stop-opacity="0"/>
<stop offset="1" stop-color="#010606"/>
</linearGradient>
<linearGradient id="paint50_linear_322_248" x1="430.709" y1="635.585" x2="717.579" y2="1110.59" gradientUnits="userSpaceOnUse">
<stop stop-color="#5C65B4" stop-opacity="0"/>
<stop offset="1" stop-color="#010606"/>
</linearGradient>
<linearGradient id="paint51_linear_322_248" x1="425.014" y1="631.092" x2="677.829" y2="1106.1" gradientUnits="userSpaceOnUse">
<stop stop-color="#5C65B4" stop-opacity="0"/>
<stop offset="1" stop-color="#010606"/>
</linearGradient>
<linearGradient id="paint52_linear_322_248" x1="419.452" y1="627.335" x2="640.007" y2="1100.14" gradientUnits="userSpaceOnUse">
<stop stop-color="#5C65B4" stop-opacity="0"/>
<stop offset="1" stop-color="#010606"/>
</linearGradient>
<linearGradient id="paint53_linear_322_248" x1="413.963" y1="624.303" x2="604.107" y2="1093.03" gradientUnits="userSpaceOnUse">
<stop stop-color="#5C65B4" stop-opacity="0"/>
<stop offset="1" stop-color="#010606"/>
</linearGradient>
<linearGradient id="paint54_linear_322_248" x1="408.494" y1="621.984" x2="570.081" y2="1085.1" gradientUnits="userSpaceOnUse">
<stop stop-color="#5C65B4" stop-opacity="0"/>
<stop offset="1" stop-color="#010606"/>
</linearGradient>
<linearGradient id="paint55_linear_322_248" x1="402.988" y1="620.364" x2="537.838" y2="1076.59" gradientUnits="userSpaceOnUse">
<stop stop-color="#5C65B4" stop-opacity="0"/>
<stop offset="1" stop-color="#010606"/>
</linearGradient>
<linearGradient id="paint56_linear_322_248" x1="397.395" y1="619.426" x2="507.27" y2="1067.75" gradientUnits="userSpaceOnUse">
<stop stop-color="#5C65B4" stop-opacity="0"/>
<stop offset="1" stop-color="#010606"/>
</linearGradient>
<linearGradient id="paint57_linear_322_248" x1="391.661" y1="619.149" x2="478.24" y2="1058.76" gradientUnits="userSpaceOnUse">
<stop stop-color="#5C65B4" stop-opacity="0"/>
<stop offset="1" stop-color="#010606"/>
</linearGradient>
<linearGradient id="paint58_linear_322_248" x1="385.741" y1="619.513" x2="450.61" y2="1049.79" gradientUnits="userSpaceOnUse">
<stop stop-color="#5C65B4" stop-opacity="0"/>
<stop offset="1" stop-color="#010606"/>
</linearGradient>
<linearGradient id="paint59_linear_322_248" x1="379.578" y1="620.494" x2="424.221" y2="1040.97" gradientUnits="userSpaceOnUse">
<stop stop-color="#5C65B4" stop-opacity="0"/>
<stop offset="1" stop-color="#010606"/>
</linearGradient>
<linearGradient id="paint60_linear_322_248" x1="373.131" y1="622.067" x2="398.926" y2="1032.4" gradientUnits="userSpaceOnUse">
<stop stop-color="#5C65B4" stop-opacity="0"/>
<stop offset="1" stop-color="#010606"/>
</linearGradient>
<linearGradient id="paint61_linear_322_248" x1="366.358" y1="624.205" x2="374.58" y2="1024.14" gradientUnits="userSpaceOnUse">
<stop stop-color="#5C65B4" stop-opacity="0"/>
<stop offset="1" stop-color="#010606"/>
</linearGradient>
<linearGradient id="paint62_linear_322_248" x1="359.211" y1="626.879" x2="351.03" y2="1016.27" gradientUnits="userSpaceOnUse">
<stop stop-color="#5C65B4" stop-opacity="0"/>
<stop offset="1" stop-color="#010606"/>
</linearGradient>
<linearGradient id="paint63_linear_322_248" x1="351.653" y1="630.059" x2="328.141" y2="1008.8" gradientUnits="userSpaceOnUse">
<stop stop-color="#5C65B4" stop-opacity="0"/>
<stop offset="1" stop-color="#010606"/>
</linearGradient>
<linearGradient id="paint64_linear_322_248" x1="343.649" y1="633.714" x2="305.783" y2="1001.76" gradientUnits="userSpaceOnUse">
<stop stop-color="#5C65B4" stop-opacity="0"/>
<stop offset="1" stop-color="#010606"/>
</linearGradient>
<linearGradient id="paint65_linear_322_248" x1="335.16" y1="637.81" x2="283.831" y2="995.153" gradientUnits="userSpaceOnUse">
<stop stop-color="#5C65B4" stop-opacity="0"/>
<stop offset="1" stop-color="#010606"/>
</linearGradient>
<linearGradient id="paint66_linear_322_248" x1="326.156" y1="642.313" x2="262.169" y2="988.961" gradientUnits="userSpaceOnUse">
<stop stop-color="#5C65B4" stop-opacity="0"/>
<stop offset="1" stop-color="#010606"/>
</linearGradient>
<linearGradient id="paint67_linear_322_248" x1="316.609" y1="647.191" x2="240.697" y2="983.166" gradientUnits="userSpaceOnUse">
<stop stop-color="#5C65B4" stop-opacity="0"/>
<stop offset="1" stop-color="#010606"/>
</linearGradient>
<linearGradient id="paint68_linear_322_248" x1="306.491" y1="652.404" x2="219.319" y2="977.735" gradientUnits="userSpaceOnUse">
<stop stop-color="#5C65B4" stop-opacity="0"/>
<stop offset="1" stop-color="#010606"/>
</linearGradient>
</defs>
</svg>
